{"accessors":[{"bufferView":2,"componentType":5126,"count":5616,"max":[-94.10582733154297,55.002140045166016,1472.000244140625],"min":[-151.00213623046875,-1259.468017578125,708.000244140625],"type":"VEC3"},{"bufferView":2,"byteOffset":67392,"componentType":5126,"count":5616,"max":[1,1,1],"min":[-1,-1,-1],"type":"VEC3"},{"bufferView":3,"componentType":5126,"count":5616,"max":[1,0.0459381565451622,1,1],"min":[-1,-0.04599520191550255,-1,1],"type":"VEC4"},{"bufferView":0,"componentType":5125,"count":9027,"max":[5615],"min":[0],"type":"SCALAR"},{"bufferView":2,"byteOffset":134784,"componentType":5126,"count":1710,"max":[-94.81293487548828,55.002140045166016,1472.000244140625],"min":[-151.00213623046875,-1259.468017578125,708.000244140625],"type":"VEC3"},{"bufferView":2,"byteOffset":155304,"componentType":5126,"count":1710,"max":[1,1,1.0368984316999619e-14],"min":[-1,-1,-1.0586383793241907e-14],"type":"VEC3"},{"bufferView":3,"byteOffset":89856,"componentType":5126,"count":1710,"max":[1,0.9978589415550232,1,1],"min":[-1,-0.9978589415550232,-1,1],"type":"VEC4"},{"bufferView":1,"componentType":5126,"count":1710,"max":[4.829397201538086,0.48012328147888184],"min":[-4.829397201538086,-4.829397201538086],"type":"VEC2"},{"bufferView":0,"byteOffset":36108,"componentType":5125,"count":4512,"max":[1709],"min":[0],"type":"SCALAR"},{"bufferView":2,"byteOffset":175824,"componentType":5126,"count":208,"max":[-96.16889190673828,54.827693939208984,822.000244140625],"min":[-150.83250427246094,0.1662560999393463,819.000244140625],"type":"VEC3"},{"bufferView":2,"byteOffset":178320,"componentType":5126,"count":208,"max":[1,1,0.0004818191519007087],"min":[-0.9999998807907104,-1,-8.21374625216073e-15],"type":"VEC3"},{"bufferView":3,"byteOffset":117216,"componentType":5126,"count":208,"max":[1,0.00015852265642024577,1,1],"min":[-1,-0.0004734497342724353,-1,1],"type":"VEC4"},{"bufferView":0,"byteOffset":54156,"componentType":5125,"count":312,"max":[207],"min":[0],"type":"SCALAR"},{"bufferView":2,"byteOffset":180816,"componentType":5126,"count":1248,"max":[-94.10582733154297,-25.525482177734375,1472.000244140625],"min":[-138.47659301757812,-1258.760986328125,708.000244140625],"type":"VEC3"},{"bufferView":2,"byteOffset":195792,"componentType":5126,"count":1248,"max":[0.7071068286895752,0.7071068286895752,1.7221948950215024e-18],"min":[0.7071068286895752,0.7071068286895752,1.7221948950215024e-18],"type":"VEC3"},{"bufferView":3,"byteOffset":120544,"componentType":5126,"count":1248,"max":[0.0012284204130992293,0.0009606510284356773,-0.9999985098838806,1],"min":[-0.0009606510284356773,-0.0012284204130992293,-1,1],"type":"VEC4"},{"bufferView":1,"byteOffset":13680,"componentType":5126,"count":1248,"max":[-27.874025344848633,3.1444289684295654],"min":[-57.95276641845703,-32.42265701293945],"type":"VEC2"},{"bufferView":0,"byteOffset":55404,"componentType":5125,"count":3600,"max":[1247],"min":[0],"type":"SCALAR"},{"bufferView":2,"byteOffset":210768,"componentType":5126,"count":96,"max":[-97.8963851928711,-29.061016082763672,1290.000244140625],"min":[-136.3552703857422,-1256.3846435546875,890.000244140625],"type":"VEC3"},{"bufferView":2,"byteOffset":211920,"componentType":5126,"count":96,"max":[0.7071068286895752,0.7071068286895752,5.82452544709865e-17],"min":[0.7071068286895752,0.7071068286895752,5.82452544709865e-17],"type":"VEC3"},{"bufferView":3,"byteOffset":140512,"componentType":5126,"count":96,"max":[4.1185617175313317e-17,4.1185617175313317e-17,-1,1],"min":[4.1185610557868416e-17,4.1185610557868416e-17,-1,1],"type":"VEC4"},{"bufferView":0,"byteOffset":69804,"componentType":5125,"count":144,"max":[95],"min":[0],"type":"SCALAR"}],"asset":{"extras":{"author":"slavamaltsev (https://sketchfab.com/slavamaltsev)","license":"CC-BY-4.0 (http://creativecommons.org/licenses/by/4.0/)","source":"https://sketchfab.com/models/7be9a9fd316f49c1881d185360bc0a4f","title":"LG NeON2OLED SMART BLINDS"},"generator":"Sketchfab-3.20.7","version":"2.0"},"bufferViews":[{"buffer":0,"byteLength":70380,"byteOffset":0,"name":"floatBufferViews","target":34963},{"buffer":0,"byteLength":23664,"byteOffset":70380,"byteStride":8,"name":"floatBufferViews","target":34962},{"buffer":0,"byteLength":213072,"byteOffset":94044,"byteStride":12,"name":"floatBufferViews","target":34962},{"buffer":0,"byteLength":142048,"byteOffset":307116,"byteStride":16,"name":"floatBufferViews","target":34962}],"buffers":[{"byteLength":449164,"uri":"data:application/octet-stream;base64,"}],"images":[{"uri":"data:application/octet-stream;base64,"},{"uri":"data:application/octet-stream;base64,"}],"materials":[{"doubleSided":true,"emissiveFactor":[0,0,0],"name":"FrontColor","pbrMetallicRoughness":{"baseColorFactor":[1,1,1,1],"metallicFactor":0,"roughnessFactor":0.9302134966}},{"doubleSided":true,"emissiveFactor":[0,0,0],"name":"Metal_Silver","pbrMetallicRoughness":{"baseColorFactor":[1,1,1,1],"baseColorTexture":{"index":0,"texCoord":0},"metallicFactor":0,"roughnessFactor":0.9302134966}},{"doubleSided":true,"emissiveFactor":[0,0,0],"name":"material","pbrMetallicRoughness":{"baseColorFactor":[0.0862745,0.623529,0.733333,1],"metallicFactor":0,"roughnessFactor":0.9302134966}},{"doubleSided":true,"emissiveFactor":[0,0,0],"name":"Lisanne_Tool_Bag_01","pbrMetallicRoughness":{"baseColorFactor":[1,1,1,1],"baseColorTexture":{"index":1,"texCoord":0},"metallicFactor":0,"roughnessFactor":0.9302134966}},{"doubleSided":true,"emissiveFactor":[1,1,1],"name":"Lisanne_Caulk","pbrMetallicRoughness":{"baseColorFactor":[0.9572202283,0.9602083827,0.9126332671,1],"metallicFactor":0,"roughnessFactor":0.9302134966}}],"meshes":[{"name":"Mesh1_FrontColor_0","primitives":[{"attributes":{"NORMAL":1,"POSITION":0,"TANGENT":2},"indices":3,"material":0,"mode":4}]},{"name":"Mesh1_Metal_Silver_0","primitives":[{"attributes":{"NORMAL":5,"POSITION":4,"TANGENT":6,"TEXCOORD_0":7},"indices":8,"material":1,"mode":4}]},{"name":"Mesh1__3_0","primitives":[{"attributes":{"NORMAL":10,"POSITION":9,"TANGENT":11},"indices":12,"material":2,"mode":4}]},{"name":"Mesh1_Lisanne_Tool_Bag_01_0","primitives":[{"attributes":{"NORMAL":14,"POSITION":13,"TANGENT":15,"TEXCOORD_0":16},"indices":17,"material":3,"mode":4}]},{"name":"Mesh1_Lisanne_Caulk_0","primitives":[{"attributes":{"NORMAL":19,"POSITION":18,"TANGENT":20},"indices":21,"material":4,"mode":4}]}],"nodes":[{"children":[1],"name":"RootNode (gltf orientation matrix)","rotation":[-0.7071067811865475,0,0,0.7071067811865476]},{"children":[2],"name":"RootNode (model correction matrix)"},{"children":[3],"matrix":[1,0,0,0,0,0,1,0,0,-1,0,0,0,0,0,1],"name":"9ef002edde61434181577f375e747feb.fbx"},{"children":[4],"name":"RootNode"},{"children":[5],"name":"Model"},{"children":[6,7,8,9,10],"name":"Mesh1"},{"mesh":0,"name":"Mesh1_FrontColor_0"},{"mesh":1,"name":"Mesh1_Metal_Silver_0"},{"mesh":2,"name":"Mesh1__3_0"},{"mesh":3,"name":"Mesh1_Lisanne_Tool_Bag_01_0"},{"mesh":4,"name":"Mesh1_Lisanne_Caulk_0"}],"samplers":[{"magFilter":9729,"minFilter":9987,"wrapS":10497,"wrapT":10497}],"scene":0,"scenes":[{"name":"OSG_Scene","nodes":[0]}],"textures":[{"sampler":0,"source":0},{"sampler":0,"source":1}]}